<?xml version="1.0" encoding="utf-8"?>
<!-- Generator: Adobe Illustrator 28.1.0, SVG Export Plug-In . SVG Version: 6.00 Build 0)  -->
<svg version="1.1" id="Capa_1" xmlns="http://www.w3.org/2000/svg" xmlns:xlink="http://www.w3.org/1999/xlink" x="0px" y="0px"
	 viewBox="0 0 534.9 269.1" style="enable-background:new 0 0 534.9 269.1;" xml:space="preserve">
<style type="text/css">
	.st0{fill-rule:evenodd;clip-rule:evenodd;fill:#00AEC7;}
	.st1{fill:#0033A0;}
</style>
<g>
	<g>
		<g>
			<g>
				<g>
					<g>
						<path class="st0" d="M431,198.4c0.2,0,0.3,0.2,0.2,0.5c-1.6,2.2-4.3,4.6-7.9,7.2c-3.5,2.5-7.6,4.9-11.8,7
							c-4.5,2.2-8.5,4-12.6,5.1c-4.7,1.2-8.7,1.7-12.1,1.3c-2.7-0.3-5-1.1-6.7-2.5c-0.1-0.1-0.1-0.2-0.1-0.3c0-0.2,0.2-0.3,0.4-0.4
							c10.5-1.7,20.1-4.4,29-7.5C418.2,205.7,425.6,202.1,431,198.4"/>
						<path class="st0" d="M430.1,193.3c-5.7,3.4-17.3,8.4-27.4,11.3c-12.1,3.5-21.8,5.2-28.3,4.3c-5.7-0.8-8.5-3.5-9.4-4.5
							c-0.1-0.1-0.3-0.2-0.2-0.4c0-0.2,0.2-0.4,0.4-0.4l2.2-0.2c4.8-0.4,13.5-0.6,23.6-2.1c11.7-1.7,30.4-5.1,39-8.5
							C430.2,192.9,430.3,193,430.1,193.3"/>
						<path class="st0" d="M429.2,208.3c0.2,0,0.3,0.1,0.2,0.4c-2.1,5.1-4.5,8.9-9.1,11.2c-8.2,4.1-12.5,1.8-13.1,1.5
							c-0.1-0.1-0.3-0.3-0.3-0.5c0-0.2,0.2-0.3,0.4-0.4c3.6-1.1,14.4-5.2,21.7-12.3C429,208.3,429.1,208.3,429.2,208.3"/>
						<path class="st0" d="M483.3,130.4c0.1,0.1,0.2,0.2,0.2,0.3c0,0.2-0.2,0.3-0.4,0.2c-2.5-0.7-7.7-2.1-14.3-3.9
							c-15.1-4.1-72.2-19.1-73.1-19.4l-0.3-0.1c-3.4-1.1-6.2-2.7-8.4-5.1c-0.6-0.7-1.2-1.4-1.8-2.2c-1.9-2.9-2.4-7.1-2.5-7.9
							c0-0.1,0-0.3,0.1-0.4c0.1-0.1,0.3-0.1,0.6-0.1l9.3,3.6C415,104,473.8,126.5,483.3,130.4"/>
						<path class="st0" d="M473.7,121.4c0.1,0.4-0.1,0.5-0.4,0.4c-3.3-1.7-10.9-5.3-18.6-9c-6.4-3.2-50.5-23.7-53.5-25.2l-5.3-2.7
							c-0.8-0.4-1.5-0.8-2.2-1.3c-2.1-1.3-3.2-2.2-4.3-3.6c-0.9-1.2-1.6-2.7-2.2-4.1c-1.3-3.2-1.2-7.3-1.2-8.1
							c0-0.1,0.1-0.3,0.2-0.3c0.1-0.1,0.3-0.1,0.5,0l5.5,3.3l2.9,1.8l16.2,9.8C434,96.4,465.5,116.3,473.7,121.4"/>
						<path class="st0" d="M490,136.5c0.1,0,0.3,0.2,0.3,0.3c0,0.2-0.1,0.2-0.4,0.3c-8.7-0.6-86.8-5.7-86.8-5.7
							c-0.7-0.1-1.3-0.1-2-0.4c-6.2-1.9-9.8-6.7-11.3-11.5c0-0.2-0.1-0.4,0-0.5c0.1-0.1,0.3-0.2,0.5-0.2
							C390.3,118.7,482.4,135.1,490,136.5"/>
						<path class="st0" d="M486.2,141.7c0.1,0,0.3,0.2,0.3,0.3c0,0.1-0.1,0.2-0.3,0.3c-3.2,0.5-62.6,8.9-63,8.9
							c-0.4,0.1-0.7,0.1-1.1,0.1c-0.3,0-0.7,0-1,0c-2.8-0.3-5.6-1.7-8.1-4.3c-1.3-1.3-2.4-3.5-2.7-4.3c-0.1-0.1-0.1-0.3,0-0.4
							c0.1-0.1,0.3-0.2,0.4-0.2c0,0,19.9-0.1,32.5-0.2c9.4,0,19.4-0.1,27.5-0.1C477.8,141.8,483.4,141.8,486.2,141.7"/>
						<path class="st0" d="M481.7,147.8c0.1,0,0.3,0,0.4,0.1c0,0.1,0.2,0.3-0.1,0.4c-1.9,1.3-44.5,19.1-45,19.2
							c-2.3,0.8-5,1.2-6.9-2c-0.8-1.3-1.5-2.4-1.8-2.9c-0.1-0.2-0.6-0.7,0.6-1c0,0,12-3.3,22.7-6C464,152.5,478,148.9,481.7,147.8"
							/>
						<path class="st0" d="M463,177.4c0.2,0,0.3,0.2,0.2,0.5c-4.1,4.8-19.3,21.6-26.1,29c-0.7,0.7-1.1,0.4-0.8-0.3
							c0,0,1.3-3.3,1.8-5.8c0.4-1.5,0.7-2.8,1.5-3.5c8.9-7.6,17.5-15.1,23.1-19.7L463,177.4z"/>
						<path class="st0" d="M476.9,156.1c0.2,0.1,0.3,0.2,0.2,0.5c-4.1,3.5-23.2,19.5-33.4,28l-0.4,0.3c-3,2.3-5,2.8-5.3-2.1
							c-0.1-1.2-0.3-2.2-0.3-2.2c-0.2-1,0.1-1,0.5-1.3c3.3-2.1,9.8-5.7,14.8-8.8C462.2,165.2,472.8,158.6,476.9,156.1"/>
					</g>
				</g>
			</g>
		</g>
	</g>
	<path class="st1" d="M89.4,142l-18.8-5.2c-5.2-1.4-9.9-3.7-9.9-10c0-6.6,4-9.8,12.3-9.8h16.7c7.4,0,16.2-2.4,16.2-14.5l-31.4,0
		c-19.3,0-30.4,9.8-30.4,23.8c0,13,8.3,20.4,23,24.3l16.4,4.3c6.8,1.8,9.2,6,9.2,10.4c0,6.6-4.2,10.6-14.3,10.6L47,176.4v14.2h31.9
		c19.4,0,30.4-10.4,30.4-24.1C109.3,152.8,103.9,146,89.4,142z M243.4,102.7c-19,0-32.1,11-32.1,33.6v54.3h15.3v-54.8
		c0-11.7,6.3-18.6,18.1-18.6h4.6c13.4,0,15.6-6.9,15.6-14.5H243.4z M175.1,102.7l0.1,61c0,8.9-7.3,13.3-17.1,13.3
		c-10.2,0-16.9-4.4-16.9-13.3l-0.1-45.6c0-13-8.2-15.4-15.3-15.4v64.7c0,16.3,14.7,24.3,31.8,24.3c16.6,0,33-8,32.9-24.3l0-47.4
		C190.5,107.2,185.7,102.7,175.1,102.7z M309,102.7L309,102.7l-3.9,0c-20.4,0-39.6,15.1-40.4,44.3c-0.8,26.6,13.1,45.3,36.6,45.3
		c19.3,0,26.1-13.4,26.1-13.4c1.1,9,6,11.7,15.7,11.7v-75.4h0v-12.5H309z M326.5,154.5c0,12.2-7,23.7-22.2,23.7
		c-13.6,0-23.3-9.1-22.6-31c0.6-21,10.7-30.3,24.1-30.3c1,0,2-0.1,3-0.1v0h17.7V154.5z"/>
	<g>
		<path class="st1" d="M72,54c-2.2-1.5-4.7-2.2-7.5-2.2c-2.5,0-4.8,0.6-6.9,1.8c-2.1,1.2-3.7,2.9-5,5c-1.2,2.1-1.8,4.4-1.8,7
			c0,2.6,0.6,4.9,1.8,7c1.2,2.1,2.9,3.8,5,5c2.1,1.2,4.5,1.8,7,1.8c2,0,3.9-0.4,5.7-1.2c1.8-0.8,3.3-2,4.5-3.4
			c1.2-1.5,2.1-3.1,2.5-5h-13v-4.3h18.7L83,68.2c-0.2,2.8-1.2,5.4-2.8,7.9c-1.7,2.5-3.9,4.4-6.6,5.9c-2.8,1.5-5.7,2.2-9,2.2
			c-3.6,0-6.9-0.8-9.8-2.4s-5.2-3.9-6.9-6.7c-1.7-2.9-2.5-6-2.5-9.5c0-3.4,0.8-6.5,2.5-9.4c1.7-2.9,4-5.1,6.9-6.8
			c2.9-1.7,6.1-2.5,9.6-2.5c3.9,0,7.3,0.9,10.3,2.7c3,1.8,5.2,4.3,6.6,7.4l-4.6,2.6C75.8,57.4,74.2,55.5,72,54z"/>
		<path class="st1" d="M89.3,47.6h12.1c2.1,0,3.9,0.5,5.6,1.5c1.7,1,3,2.3,3.9,3.9c0.9,1.6,1.4,3.4,1.4,5.3c0,1.5-0.3,2.9-0.9,4.2
			c-0.6,1.3-1.5,2.5-2.6,3.5c-1.1,1-2.4,1.7-3.9,2.1l8.9,15.4c-1.6,0.4-3,0.4-4.1,0.1s-2-1.1-2.6-2.3l-7-12.3h-5.7v14.5h-5.1V47.6z
			 M104,64c1-0.6,1.8-1.4,2.4-2.4c0.6-1,0.8-2,0.8-3.2c0-1.1-0.3-2.2-0.8-3.2c-0.5-1-1.3-1.8-2.3-2.4s-2.1-0.9-3.3-0.9h-6.4v12.8
			h6.2C101.9,64.9,103,64.6,104,64z"/>
		<path class="st1" d="M126.4,82.6c-2.1-1.1-3.7-2.6-4.8-4.5c-1.1-1.9-1.7-3.9-1.7-6V47.6h5V71c0,1.5,0.4,2.8,1.1,4.1
			c0.8,1.3,1.8,2.3,3.2,3.1c1.4,0.8,2.9,1.2,4.6,1.2c1.6,0,3.2-0.4,4.5-1.1c1.4-0.7,2.5-1.7,3.3-3c0.8-1.3,1.2-2.7,1.2-4.2V47.6h5.1
			V72c0,2.1-0.6,4.1-1.8,6c-1.2,1.9-2.9,3.4-5.1,4.5c-2.2,1.1-4.6,1.7-7.2,1.7C131,84.3,128.5,83.7,126.4,82.6z"/>
		<path class="st1" d="M156.4,47.6h12.1c2.1,0,3.9,0.5,5.6,1.5c1.7,1,3,2.3,3.9,4c0.9,1.7,1.4,3.5,1.4,5.4c0,2-0.5,3.8-1.4,5.4
			c-0.9,1.7-2.3,3-3.9,4c-1.7,1-3.6,1.5-5.6,1.5h-7v14.1h-5.1V47.6z M171.2,64c1-0.6,1.8-1.4,2.3-2.4c0.5-1,0.8-2,0.8-3.2
			c0-1.1-0.3-2.2-0.8-3.2c-0.5-1-1.3-1.8-2.3-2.4c-1-0.6-2.1-0.9-3.3-0.9h-6.4v12.8h6.4C169.1,64.9,170.2,64.6,171.2,64z"/>
		<path class="st1" d="M192.8,81.8c-2.9-1.6-5.2-3.9-6.8-6.7c-1.6-2.8-2.5-6-2.5-9.5c0-3.4,0.8-6.5,2.5-9.4c1.7-2.9,4-5.1,6.9-6.8
			c2.9-1.7,6.1-2.5,9.6-2.5c3.6,0,6.8,0.8,9.7,2.4c2.9,1.6,5.1,3.9,6.8,6.7c1.6,2.8,2.4,6,2.4,9.5c0,3.4-0.8,6.5-2.5,9.4
			c-1.7,2.9-4,5.1-6.9,6.8c-2.9,1.7-6.1,2.5-9.5,2.5C198.9,84.2,195.7,83.4,192.8,81.8z M190.7,72.5c1.2,2.1,2.9,3.8,5,5
			c2.1,1.2,4.4,1.8,6.9,1.8c2.5,0,4.8-0.6,6.9-1.8c2.1-1.2,3.7-2.9,5-5c1.2-2.1,1.8-4.4,1.8-7c0-2.6-0.6-4.9-1.8-7
			c-1.2-2.1-2.9-3.8-5-5c-2.1-1.2-4.4-1.8-6.9-1.8c-2.5,0-4.8,0.6-6.9,1.8c-2.1,1.2-3.7,2.9-5,5c-1.2,2.1-1.8,4.4-1.8,7
			C188.8,68.1,189.4,70.4,190.7,72.5z"/>
	</g>
</g>
</svg>
